<?xml version="1.0" encoding="UTF-8" standalone="no"?>
<svg
   xmlns:dc="http://purl.org/dc/elements/1.1/"
   xmlns:cc="http://creativecommons.org/ns#"
   xmlns:rdf="http://www.w3.org/1999/02/22-rdf-syntax-ns#"
   xmlns:svg="http://www.w3.org/2000/svg"
   xmlns="http://www.w3.org/2000/svg"
   xml:space="preserve"
   style="enable-background:new 0 0 32 32;"
   viewBox="0 0 32 32"
   y="0px"
   x="0px"
   id="Line_12"
   version="1.1"><metadata
     id="metadata14"><rdf:RDF><cc:Work
         rdf:about=""><dc:format>image/svg+xml</dc:format><dc:type
           rdf:resource="http://purl.org/dc/dcmitype/StillImage" /></cc:Work></rdf:RDF></metadata><defs
     id="defs12" /><style
     id="style2"
     type="text/css">
	.st0{fill:#FFFFFF;}
</style><g
     id="_x35__10_"><g
       id="g6"><path
         id="path4"
         d="M14,0h-2c-1.1,0-2,0.9-2,2v28c0,1.1,0.9,2,2,2h2c1.1,0,2-0.9,2-2V2C16,0.9,15.1,0,14,0z M14,29    c0,0.6-0.4,1-1,1c-0.6,0-1-0.4-1-1V3c0-0.6,0.4-1,1-1c0.6,0,1,0.4,1,1V29z M4,9H2c-1.1,0-2,0.9-2,2v19c0,1.1,0.9,2,2,2h2    c1.1,0,2-0.9,2-2V11C6,9.9,5.1,9,4,9z M4,29c0,0.6-0.4,1-1,1c-0.6,0-1-0.4-1-1V12c0-0.6,0.4-1,1-1c0.6,0,1,0.4,1,1V29z M24,16h-2    c-1.1,0-2,0.9-2,2v12c0,1.1,0.9,2,2,2h2c1.1,0,2-0.9,2-2V18C26,16.9,25.1,16,24,16z M24,29c0,0.6-0.4,1-1,1c-0.6,0-1-0.4-1-1V19    c0-0.6,0.4-1,1-1c0.6,0,1,0.4,1,1V29z"
         class="st0" /></g></g></svg>