<?xml version="1.0" encoding="utf-8"?>
<!-- Generator: Adobe Illustrator 24.3.0, SVG Export Plug-In . SVG Version: 6.00 Build 0)  -->
<svg version="1.1" id="Layer_1" xmlns="http://www.w3.org/2000/svg" xmlns:xlink="http://www.w3.org/1999/xlink" x="0px" y="0px"
	 viewBox="0 0 32 32" style="enable-background:new 0 0 32 32;" xml:space="preserve">
<style type="text/css">
	.st0{fill:none;}
	.st1{fill:#6BFF1F;}
</style>
<g id="_x36__6_">
	<g>
		<path class="st0" d="M25,19.9v-7.5c0-5.1-4.5-9.3-10-9.3S5,7.3,5,12.4v7.5l-4,7.5h9.1c0.5,2.1,2.5,3.7,4.9,3.7s4.4-1.6,4.9-3.7H29
			L25,19.9z M15,29.2c-1.3,0-2.4-0.7-2.8-1.9h5.6C17.4,28.4,16.3,29.2,15,29.2z M4,25.5l3-5.6v-7.5c0-4.1,3.6-7.5,8-7.5s8,3.4,8,7.5
			v7.5l3,5.6H4z"/>
	</g>
</g>
<ellipse class="st1" cx="29.3" cy="4.8" rx="1.9" ry="1.8"/>
</svg>
