<?xml version="1.0" encoding="utf-8"?>
<!-- Generator: Adobe Illustrator 24.2.3, SVG Export Plug-In . SVG Version: 6.00 Build 0)  -->
<svg version="1.1" id="Layer_1" xmlns="http://www.w3.org/2000/svg" xmlns:xlink="http://www.w3.org/1999/xlink" x="0px" y="0px"
	 viewBox="0 0 32 32" style="enable-background:new 0 0 32 32;" xml:space="preserve">
<style type="text/css">
	.st0{fill:#0A0035;}
	.st1{fill:#FFFFFF;}
</style>
<ellipse class="st0" cx="16.2" cy="16" rx="18.7" ry="17.4"/>
<path class="st1" d="M27.4,9.3c-0.8,0.3-1.7,0.6-2.6,0.6c1-0.5,1.7-1.4,2-2.5c-0.9,0.5-1.9,0.9-2.9,1.1c-0.7-0.9-2-1.5-3.2-1.5
	c-2.5,0-4.6,1.9-4.6,4.5c0,0.3,0.1,0.7,0.1,1c-3.8-0.3-7.1-2.1-9.3-4.9C6.5,8.4,6.2,9.1,6.2,9.9c0,1.6,0.8,3,1.9,3.8
	c-0.8,0-1.4-0.2-2.1-0.6l0,0.1c0,2.2,1.5,4,3.6,4.5c-0.4,0.1-0.8,0.1-1.2,0.1c-0.3,0-0.6,0-0.8-0.1c0.5,1.8,2.2,3.1,4.2,3.2
	c-1.5,1.2-3.5,1.9-5.7,1.8c-0.3,0-0.8,0-1.1-0.1c2,1.3,4.4,2.1,6.9,2.2c8.3,0.1,13-6.7,13.1-12.7c0-0.2,0-0.4,0-0.6
	C26,11,26.8,10.2,27.4,9.3z"/>
</svg>
