<?xml version="1.0" encoding="utf-8"?>
<!-- Generator: Adobe Illustrator 24.3.0, SVG Export Plug-In . SVG Version: 6.00 Build 0)  -->
<svg version="1.1" id="Layer_1" xmlns="http://www.w3.org/2000/svg" xmlns:xlink="http://www.w3.org/1999/xlink" x="0px" y="0px"
	 viewBox="0 0 32 32" style="enable-background:new 0 0 32 32;" xml:space="preserve">
<style type="text/css">
	.st0{fill:none;}
	.st1{fill:#0000FF;}
</style>
<circle class="st0" cx="14.4" cy="14.7" r="12.8"/>
<path class="st1" d="M16.4,20.4c0-0.1,0-0.2,0-0.4c0-0.1,0-0.2-0.1-0.3c0-0.1-0.1-0.2-0.1-0.3C16,19.3,16,19.2,16,19.2
	c0-0.1-0.1-0.1-0.2-0.3c-0.1-0.1-0.2-0.2-0.2-0.2s-0.1-0.1-0.3-0.2c-0.1-0.1-0.2-0.2-0.3-0.2c0,0-0.1-0.1-0.3-0.2
	c-0.1-0.1-0.2-0.2-0.3-0.2c-0.1,0-0.2,0-0.5,0c-0.3,0-0.6,0-0.9,0c-0.3,0-0.6,0.1-0.9,0.2c-0.3,0.1-0.6,0.2-0.9,0.4
	c-0.3,0.2-0.5,0.4-0.6,0.6c-0.1,0.3-0.2,0.6-0.2,0.9c0,0.4,0.1,0.8,0.3,1c0.2,0.3,0.5,0.5,0.8,0.7s0.7,0.3,1,0.4
	c0.4,0.1,0.7,0.1,1.1,0.1s0.7,0,1-0.1c0.3-0.1,0.6-0.2,0.9-0.4c0.3-0.1,0.5-0.4,0.6-0.6C16.3,21.1,16.4,20.8,16.4,20.4z M15.4,12.9
	c0-0.4,0-0.7-0.1-1.1c-0.1-0.4-0.2-0.8-0.4-1.1c-0.2-0.4-0.4-0.7-0.7-0.9c-0.3-0.2-0.7-0.4-1-0.4c-0.5,0-0.9,0.2-1.3,0.6
	c-0.3,0.4-0.5,0.9-0.5,1.4c0,0.3,0,0.5,0.1,0.9c0,0.3,0.2,0.6,0.3,0.9c0.1,0.3,0.3,0.6,0.5,0.8s0.4,0.5,0.7,0.6
	c0.3,0.1,0.5,0.2,0.9,0.2c0.5,0,0.9-0.2,1.2-0.5C15.2,14,15.4,13.5,15.4,12.9z M14.2,8.8H18l-1.2,0.7h-1.2c0.4,0.3,0.7,0.6,0.9,1.1
	C16.9,11,17,11.5,17,12c0,0.4,0,0.8-0.2,1.1s-0.3,0.6-0.5,0.8c-0.2,0.2-0.4,0.4-0.6,0.5c-0.2,0.2-0.4,0.4-0.5,0.5
	c-0.1,0.2-0.2,0.4-0.2,0.6c0,0.1,0,0.3,0.1,0.5s0.2,0.3,0.4,0.4s0.3,0.3,0.5,0.4c0.2,0.1,0.4,0.3,0.5,0.5c0.2,0.2,0.4,0.4,0.5,0.6
	c0.1,0.2,0.3,0.5,0.4,0.7c0.1,0.3,0.1,0.6,0.1,0.9c0,0.9-0.4,1.8-1.2,2.4c-0.9,0.8-2.1,1.1-3.6,1.1c-0.4,0-0.7,0-1-0.1
	c-0.4,0-0.7-0.1-1-0.3c-0.4-0.1-0.7-0.3-0.9-0.5S9.2,21.9,9,21.5c-0.1-0.3-0.2-0.6-0.2-1c0-0.4,0.1-0.7,0.3-1.2
	c0.2-0.4,0.5-0.7,0.8-0.9c0.4-0.3,0.8-0.5,1.3-0.6c0.5-0.1,0.9-0.2,1.4-0.3c0.4,0,0.9-0.1,1.3-0.1c-0.4-0.5-0.5-0.9-0.5-1.3
	c0-0.1,0-0.1,0-0.2c0,0,0-0.1,0-0.2s0-0.1,0.1-0.2s0-0.1,0-0.2c-0.2,0-0.5,0-0.6,0c-0.9,0-1.6-0.3-2.2-0.9s-0.9-1.3-0.9-2.1
	c0-0.8,0.3-1.5,0.8-2.2c0.5-0.6,1.2-1,2-1.2C13.2,8.9,13.7,8.8,14.2,8.8z M23.2,11v1.1H21v2.2h-1.1v-2.2h-2.2V11h2.2V8.8H21V11H23.2
	z"/>
</svg>
