<?xml version="1.0" encoding="utf-8"?>
<!-- Generator: Adobe Illustrator 24.3.0, SVG Export Plug-In . SVG Version: 6.00 Build 0)  -->
<svg version="1.1" id="Layer_1" xmlns="http://www.w3.org/2000/svg" xmlns:xlink="http://www.w3.org/1999/xlink" x="0px" y="0px"
	 viewBox="0 0 32 32" style="enable-background:new 0 0 32 32;" xml:space="preserve">
<style type="text/css">
	.st0{fill:none;}
	.st1{fill:#FF0000;}
</style>
<circle class="st0" cx="16.4" cy="16.2" r="11.3"/>
<path class="st1" d="M23.5,10.8c-0.5,0.3-1,0.5-1.7,0.6c0.6-0.4,1-1.1,1.3-2c-0.5,0.4-1.1,0.7-1.8,0.8c-0.5-0.7-1.3-1.1-2.1-1.1
	c-1.6,0-2.9,1.6-2.9,3.6c0,0.3,0,0.6,0.1,0.8c-2.5-0.2-4.6-1.6-6-3.7c-0.3,0.6-0.4,1.2-0.4,1.8c0,1.3,0.5,2.3,1.3,3
	c-0.5,0-0.9-0.2-1.3-0.4v0.1c0,1.7,1,3.2,2.4,3.5c-0.3,0.1-0.5,0.1-0.8,0.1c-0.2,0-0.3,0-0.5-0.1c0.3,1.4,1.5,2.4,2.7,2.5
	c-1,1-2.3,1.5-3.6,1.5c-0.2,0-0.5,0-0.7-0.1c1.3,1,2.8,1.6,4.5,1.6c5.4,0,8.3-5.4,8.3-10.1c0-0.2,0-0.3,0-0.4
	C22.6,12.1,23.1,11.5,23.5,10.8z"/>
</svg>
